# xmcd
#
# Track frame offsets: 
#        150
#        22807
#        45299
#        68330
#        91841
#
# Disc length: 1670 seconds
#
# Revision: 0
# Processed by: cddbd v1.5.2PL0 Copyright (c) Steve Scherf et al.
# Submitted via: ExactAudioCopy v1.0b1
#
DISCID=26068405
DTITLE=青木隆治 - Lien
DYEAR=2011
DGENRE=Pops
TTITLE0=Lien ～選ばれし絆～
TTITLE1=助手席
TTITLE2=ここにいるよ
TTITLE3=ねがい詩
TTITLE4=メッセージ ～希望ある未来へ～
EXTD=
EXTT0=
EXTT1=
EXTT2=
EXTT3=
EXTT4=
PLAYORDER=
